<?xml version="1.0" standalone="no"?>
<!DOCTYPE svg PUBLIC "-//W3C//DTD SVG 20010904//EN"
 "http://www.w3.org/TR/2001/REC-SVG-20010904/DTD/svg10.dtd">
<svg version="1.0" xmlns="http://www.w3.org/2000/svg"
 width="2338.000000pt" height="2338.000000pt" viewBox="0 0 2338.000000 2338.000000"
 preserveAspectRatio="xMidYMid meet">
<metadata>
Created by potrace 1.14, written by Peter Selinger 2001-2017
</metadata>
<g transform="translate(0.000000,2338.000000) scale(0.100000,-0.100000)"
fill="#000000" stroke="none">
<path d="M509 18498 c-12 -5 -19 -18 -20 -35 -1 -15 -3 -37 -4 -48 -5 -37 -45
-309 -50 -335 -2 -14 -14 -92 -25 -175 -24 -167 -28 -199 -35 -235 -2 -14 -7
-45 -10 -70 -3 -25 -10 -70 -15 -100 -5 -30 -12 -75 -15 -100 -5 -45 -23 -162
-31 -210 -2 -14 -7 -46 -10 -72 l-6 -48 43 -1 c24 0 466 -1 983 -1 l938 1 -6
-47 c-3 -26 -8 -58 -11 -72 -6 -37 -115 -681 -120 -710 -5 -35 -14 -90 -20
-120 -3 -14 -7 -38 -9 -55 -3 -16 -24 -138 -46 -270 -22 -132 -43 -251 -45
-265 -45 -270 -67 -400 -70 -420 -4 -21 -23 -133 -39 -220 -3 -14 -7 -46 -11
-72 -3 -26 -7 -53 -10 -60 -4 -11 -10 -46 -19 -113 -2 -11 -6 -36 -10 -55 -3
-19 -8 -48 -11 -65 -4 -28 -31 -188 -41 -245 -2 -14 -9 -52 -15 -85 -6 -33
-12 -71 -14 -85 -2 -14 -10 -65 -19 -115 -9 -49 -18 -107 -22 -129 -3 -21 -7
-46 -9 -55 -1 -9 -6 -36 -10 -61 -4 -25 -9 -54 -11 -65 -3 -11 -7 -36 -10 -55
-2 -19 -7 -46 -10 -60 -2 -14 -7 -38 -9 -55 -5 -27 -11 -66 -21 -120 -8 -50
-35 -213 -40 -240 -2 -16 -6 -41 -9 -55 -3 -14 -7 -41 -10 -60 -4 -19 -15 -84
-25 -145 -10 -60 -21 -123 -23 -140 -3 -16 -21 -125 -41 -241 -20 -116 -38
-224 -40 -240 -2 -16 -9 -56 -15 -89 -6 -33 -13 -76 -16 -95 -3 -19 -8 -42
-10 -50 -2 -8 -7 -35 -10 -60 -3 -25 -8 -52 -10 -60 -2 -8 -7 -35 -10 -60 -3
-25 -8 -52 -10 -60 -2 -8 -6 -33 -9 -55 -4 -22 -11 -62 -16 -90 -5 -27 -12
-66 -14 -85 -3 -19 -25 -156 -51 -305 -54 -314 -53 -308 -60 -359 -4 -21 -8
-46 -10 -55 -1 -9 -6 -36 -10 -61 -4 -25 -9 -54 -12 -65 -2 -11 -6 -33 -8 -50
-10 -72 -17 -111 -21 -127 -5 -17 46 -18 964 -18 l969 0 13 88 c8 48 15 92 16
97 3 15 35 206 40 240 2 17 11 66 19 110 8 44 17 100 20 125 4 25 11 68 16 95
5 28 12 66 15 85 3 19 7 46 10 60 2 14 13 79 24 145 11 66 22 131 24 145 16
88 57 332 61 365 4 22 8 47 10 55 2 8 7 35 10 60 3 25 8 52 10 60 2 8 7 33 10
55 3 23 7 52 10 65 8 42 24 133 30 175 3 22 8 51 10 65 7 41 85 503 90 530 2
14 11 68 20 120 16 93 18 109 30 180 3 19 7 46 10 60 3 14 7 39 9 55 3 17 17
100 31 185 15 85 28 169 31 185 2 17 6 41 9 55 3 14 7 39 9 55 3 17 12 73 21
125 9 52 18 109 21 125 2 17 11 66 19 110 8 44 17 98 20 120 3 22 8 51 11 63
3 13 7 43 10 65 3 23 7 49 10 57 3 8 7 33 10 55 3 22 9 60 14 85 8 40 20 109
25 150 2 8 10 60 19 115 10 55 19 111 21 125 2 14 6 36 9 50 3 14 8 43 11 64
3 21 7 48 10 60 2 12 7 37 9 56 3 19 13 76 21 125 9 50 18 101 20 115 2 14 22
135 45 270 23 135 43 256 45 270 2 14 10 66 19 115 9 50 18 108 21 130 3 22
10 60 15 85 5 25 14 79 21 120 12 79 16 100 24 140 3 14 7 44 10 67 2 23 9 60
14 83 5 22 7 40 5 40 -3 0 0 8 5 19 10 18 43 18 1011 18 550 0 1002 2 1004 4
2 2 20 76 41 164 41 177 71 303 140 595 26 107 48 202 50 210 2 8 9 38 15 65
6 28 13 59 16 70 2 11 10 47 18 80 45 184 57 238 52 243 -9 8 -5994 8 -6017 0z"/>
<path d="M9966 18503 c-1 -1 -173 -5 -381 -8 -209 -3 -479 -8 -600 -10 -121
-2 -400 -6 -620 -10 -220 -3 -490 -8 -600 -10 -110 -2 -266 -4 -347 -5 -159
-2 -151 1 -162 -60 -8 -50 -16 -96 -20 -120 -3 -20 -32 -178 -53 -290 -2 -13
-13 -72 -23 -130 -10 -58 -30 -170 -45 -250 -14 -80 -30 -170 -35 -200 -6 -30
-12 -66 -15 -80 -7 -34 -23 -127 -30 -170 -3 -19 -12 -69 -20 -110 -7 -41 -26
-142 -40 -225 -15 -82 -33 -184 -41 -225 -7 -41 -16 -91 -19 -110 -3 -19 -10
-57 -15 -85 -5 -27 -12 -66 -15 -85 -3 -19 -21 -120 -40 -225 -19 -104 -37
-203 -40 -220 -3 -16 -7 -41 -10 -55 -2 -14 -14 -79 -25 -145 -11 -66 -25
-140 -30 -165 -7 -36 -64 -351 -85 -470 -6 -40 -25 -143 -29 -165 -2 -11 -7
-40 -11 -65 -4 -25 -9 -52 -10 -60 -5 -31 -19 -105 -20 -110 -4 -18 -15 -80
-20 -105 -2 -16 -7 -41 -10 -55 -10 -51 -16 -86 -19 -110 -2 -14 -9 -54 -16
-90 -7 -36 -14 -74 -15 -85 -2 -11 -11 -60 -20 -110 -9 -49 -18 -101 -20 -115
-2 -14 -6 -36 -9 -50 -3 -14 -20 -104 -36 -200 -17 -96 -37 -209 -45 -250 -8
-41 -17 -91 -20 -110 -3 -19 -15 -87 -27 -150 -11 -63 -22 -124 -23 -135 -2
-11 -10 -58 -19 -105 -8 -47 -18 -98 -21 -115 -3 -16 -19 -106 -36 -200 -16
-93 -34 -195 -39 -225 -6 -30 -12 -64 -14 -75 -2 -11 -7 -40 -12 -65 -4 -25
-8 -47 -9 -50 -1 -3 -5 -25 -9 -50 -4 -25 -18 -103 -31 -175 -14 -71 -27 -146
-30 -165 -7 -45 -17 -99 -22 -125 -2 -11 -6 -35 -9 -54 -3 -18 -8 -43 -10 -55
-2 -11 -7 -34 -9 -51 -3 -16 -10 -55 -16 -85 -6 -30 -12 -64 -13 -75 -6 -40
-17 -101 -26 -145 -5 -25 -12 -61 -14 -80 -3 -19 -8 -46 -11 -60 -3 -14 -10
-52 -15 -85 -17 -102 -20 -119 -30 -165 -12 -56 -39 -213 -45 -260 -3 -19 -7
-45 -10 -57 l-5 -23 924 0 924 0 6 33 c4 17 18 91 32 162 33 171 33 171 38
198 2 12 7 33 10 47 3 14 8 36 10 50 2 14 22 115 44 225 23 110 43 211 45 225
4 21 41 209 61 310 16 79 57 289 61 310 3 14 7 36 10 50 2 14 29 149 59 300
30 151 59 300 65 330 6 30 13 66 16 80 3 14 24 120 46 235 22 116 44 228 49
250 5 22 12 56 15 75 3 19 8 42 10 50 2 8 7 31 10 50 3 19 8 42 11 51 4 14
138 16 1465 15 803 -1 1468 2 1478 5 13 5 20 27 29 85 7 44 14 90 17 104 52
293 80 451 101 570 14 80 27 156 30 170 2 14 20 115 39 225 19 110 37 211 40
225 8 42 25 133 25 137 0 2 -684 3 -1520 3 -836 0 -1520 4 -1520 8 0 5 4 33
10 63 5 30 12 70 15 89 3 19 17 96 30 170 13 74 27 155 30 180 8 48 12 70 20
110 8 38 34 190 40 235 4 22 8 47 10 55 4 14 10 47 21 115 2 17 7 41 9 55 3
14 7 39 10 55 5 38 93 541 100 575 3 14 12 66 20 115 8 50 18 104 21 120 3 17
9 48 13 70 l7 40 1807 1 c994 1 1811 4 1814 8 4 4 9 19 10 34 2 15 15 97 29
182 14 85 27 166 29 180 2 14 11 68 19 120 9 52 18 113 21 135 3 22 10 63 15
90 5 28 12 68 15 90 3 22 7 51 9 65 3 14 7 41 10 60 3 19 8 46 10 60 5 23 14
82 32 195 3 22 9 59 14 83 6 35 5 42 -9 43 -37 2 -2693 4 -2695 2z"/>
<path d="M13407 18500 c-7 -3 -13 -9 -14 -15 0 -5 -4 -28 -7 -50 -10 -66 -18
-119 -22 -140 -3 -11 -7 -38 -9 -60 -3 -22 -10 -65 -15 -95 -5 -30 -12 -75
-15 -100 -3 -25 -15 -97 -25 -160 -11 -63 -22 -132 -24 -154 -10 -73 -17 -121
-21 -136 -2 -8 -7 -40 -10 -70 -3 -30 -8 -62 -10 -70 -2 -8 -11 -60 -19 -115
-23 -152 -26 -173 -41 -265 -13 -82 -24 -153 -30 -195 -11 -78 -17 -116 -25
-160 -5 -27 -12 -68 -15 -90 -3 -22 -8 -53 -10 -70 -3 -16 -7 -46 -9 -65 -2
-19 -7 -46 -10 -60 -3 -14 -8 -47 -11 -74 -3 -27 -8 -52 -9 -55 -2 -3 -7 -33
-10 -66 -4 -33 -9 -67 -11 -75 -3 -8 -7 -31 -9 -50 -3 -19 -11 -78 -20 -130
-8 -52 -17 -113 -20 -135 -8 -58 -18 -117 -22 -140 -3 -11 -7 -40 -10 -65 -3
-25 -7 -52 -9 -60 -2 -8 -7 -35 -10 -60 -3 -25 -8 -57 -11 -72 -2 -16 -6 -40
-8 -55 -12 -76 -19 -120 -22 -138 -2 -10 -6 -37 -9 -60 -7 -47 -12 -80 -25
-155 -5 -30 -11 -73 -14 -95 -5 -40 -28 -191 -46 -295 -5 -30 -12 -75 -15
-100 -3 -25 -8 -58 -11 -75 -3 -16 -7 -41 -9 -55 -2 -14 -6 -38 -9 -55 -4 -28
-40 -265 -52 -345 -3 -19 -9 -60 -14 -90 -5 -30 -12 -73 -15 -95 -9 -58 -14
-93 -25 -155 -5 -30 -11 -71 -14 -90 -3 -19 -14 -96 -26 -170 -23 -152 -28
-184 -35 -237 -3 -21 -10 -60 -15 -88 -5 -27 -11 -70 -15 -95 -3 -25 -7 -54
-9 -65 -3 -19 -12 -75 -22 -140 -3 -16 -9 -55 -14 -85 -5 -30 -12 -75 -15
-100 -3 -25 -8 -56 -11 -70 -2 -14 -7 -43 -9 -65 -3 -22 -12 -78 -20 -125 -7
-47 -16 -103 -19 -125 -4 -22 -8 -51 -11 -65 -2 -14 -7 -42 -10 -62 -8 -62
-16 -111 -21 -143 -3 -16 -7 -41 -9 -55 -13 -85 -77 -498 -80 -515 -2 -11 -7
-40 -10 -65 -5 -43 -10 -76 -20 -130 -3 -14 -7 -47 -10 -75 -4 -27 -8 -57 -10
-65 -3 -8 -7 -33 -10 -55 -11 -75 -15 -100 -20 -125 -2 -14 -7 -43 -10 -65
-15 -104 -37 -242 -41 -257 -5 -17 41 -18 869 -18 l874 0 13 93 c7 50 13 99
15 107 1 8 6 35 10 60 4 25 9 52 10 61 4 22 13 76 20 124 3 22 17 110 31 195
13 85 26 169 29 185 7 53 16 109 25 160 5 28 12 68 15 90 3 22 10 65 15 95 5
30 12 78 16 105 3 28 8 59 10 70 7 35 33 198 40 250 3 28 8 59 10 70 4 18 45
274 59 370 12 78 16 101 25 155 5 30 12 75 15 100 3 25 10 70 15 100 9 54 14
82 25 150 3 19 7 46 10 60 3 14 7 48 11 75 3 28 8 57 9 67 2 9 7 38 11 65 5
26 9 50 9 53 1 3 5 30 9 60 5 30 10 64 12 75 3 11 6 36 9 55 3 19 7 46 10 60
3 14 8 43 10 65 3 22 10 65 15 95 5 30 12 73 15 95 2 22 7 51 9 65 10 57 45
278 51 320 3 25 10 68 15 95 5 28 12 68 15 90 5 38 28 188 41 265 3 19 14 89
25 155 11 66 21 135 24 153 2 18 6 45 9 60 3 15 8 43 10 62 7 53 16 109 26
165 5 28 12 70 15 95 3 25 10 70 15 100 5 30 11 69 14 85 2 17 8 50 12 75 4
25 8 52 9 60 4 27 16 104 25 160 10 61 18 112 28 179 l7 44 57 -64 c31 -35 67
-75 78 -89 12 -14 36 -41 53 -60 18 -19 61 -69 97 -110 36 -41 70 -80 75 -86
6 -6 42 -46 80 -90 39 -43 77 -85 85 -94 8 -9 44 -49 80 -90 36 -41 74 -84 85
-96 11 -11 48 -52 81 -90 34 -38 77 -85 95 -105 40 -42 186 -203 212 -233 19
-21 55 -60 246 -265 427 -458 831 -866 1077 -1087 250 -225 421 -344 495 -344
69 0 206 83 536 326 71 52 291 224 309 242 7 6 17 12 22 12 6 0 12 4 14 9 2 4
64 57 138 117 127 102 599 492 610 504 3 3 79 68 170 145 91 76 176 149 190
161 22 20 220 191 415 358 60 51 146 127 155 136 3 3 39 34 80 70 115 100 131
114 190 166 31 27 89 78 130 114 41 36 136 120 211 188 76 67 141 122 144 122
4 0 4 -21 0 -47 -3 -27 -8 -64 -10 -83 -2 -19 -7 -60 -10 -90 -3 -30 -8 -66
-10 -80 -4 -23 -6 -41 -20 -147 -2 -21 -7 -65 -11 -98 -3 -33 -8 -62 -9 -65
-2 -3 -6 -39 -10 -79 -4 -41 -8 -82 -10 -90 -1 -9 -6 -45 -10 -81 -4 -36 -9
-72 -10 -80 -2 -8 -6 -44 -10 -80 -3 -36 -8 -76 -10 -90 -11 -81 -15 -111 -20
-160 -4 -30 -8 -66 -10 -80 -3 -14 -7 -47 -9 -75 -3 -27 -10 -81 -15 -120 -6
-38 -12 -92 -16 -120 -3 -27 -7 -66 -10 -85 -2 -19 -7 -60 -10 -90 -4 -30 -8
-66 -10 -80 -2 -14 -9 -65 -15 -115 -6 -49 -13 -107 -15 -127 -8 -64 -14 -111
-20 -168 -4 -30 -8 -66 -10 -80 -2 -14 -7 -50 -10 -80 -3 -30 -8 -66 -10 -80
-2 -14 -7 -50 -10 -80 -3 -30 -8 -67 -11 -81 -4 -29 -7 -50 -24 -204 -6 -55
-13 -111 -15 -125 -11 -75 -15 -110 -20 -160 -3 -30 -8 -66 -10 -80 -2 -14 -6
-45 -9 -70 -12 -103 -37 -308 -41 -340 -3 -19 -7 -55 -10 -80 -3 -25 -7 -61
-10 -80 -3 -19 -7 -53 -9 -75 -3 -22 -7 -60 -10 -85 -3 -25 -8 -67 -12 -95 -3
-27 -7 -61 -9 -75 -11 -77 -15 -110 -20 -160 -3 -30 -8 -66 -10 -80 -2 -14 -7
-50 -10 -80 -6 -59 -24 -199 -30 -240 -2 -14 -6 -50 -10 -80 -3 -30 -8 -71
-10 -90 -3 -19 -7 -55 -10 -80 -3 -25 -8 -61 -10 -80 -5 -34 -7 -48 -19 -160
-4 -30 -9 -67 -12 -82 l-6 -28 856 0 856 0 1 28 c0 15 2 34 3 42 2 8 9 56 16
105 6 50 13 101 15 115 2 14 7 49 10 79 4 30 8 61 10 70 1 9 6 41 10 71 3 30
8 66 10 80 2 14 9 63 15 110 16 123 21 162 25 190 4 31 17 129 20 150 2 17 15
111 20 150 2 14 7 50 10 80 3 30 8 62 10 70 2 8 7 40 10 70 3 30 8 66 10 80 2
14 7 43 9 65 3 22 12 94 21 160 9 66 18 138 21 160 3 22 7 51 9 65 4 25 10 70
20 150 3 25 8 56 10 70 2 14 7 45 10 70 3 25 10 77 15 115 5 39 12 90 15 115
10 77 16 124 20 150 4 29 13 92 20 153 3 23 10 71 15 107 8 56 13 93 25 180 1
8 5 42 9 75 4 33 9 69 11 80 2 11 7 43 10 70 3 28 10 84 16 125 5 41 12 89 14
105 10 81 17 132 21 155 2 14 6 43 9 65 3 22 7 60 10 85 3 25 15 110 26 190
11 80 22 163 24 185 7 53 15 113 22 150 2 17 6 46 8 65 4 37 64 491 80 600 2
14 7 50 10 80 4 30 9 62 10 70 2 8 6 42 9 75 6 54 35 264 52 385 4 25 8 56 10
70 11 91 27 208 30 225 2 11 6 44 10 73 3 29 7 61 9 70 2 10 6 45 10 77 4 33
9 68 11 79 2 10 6 44 10 75 3 31 7 63 9 71 1 8 6 40 10 70 3 30 8 66 10 80 7
47 15 105 20 150 3 25 7 59 10 75 7 45 15 105 20 150 3 22 9 72 15 110 5 39
12 90 15 115 4 25 8 56 10 70 2 14 7 49 10 79 4 30 8 61 10 70 1 9 6 41 10 71
3 30 8 66 10 80 2 14 7 50 10 80 4 30 9 64 11 74 2 11 6 42 9 70 6 49 12 98
20 142 16 97 17 134 4 135 -8 0 -413 1 -901 1 l-886 1 -99 -95 c-115 -112
-178 -173 -379 -364 -196 -186 -226 -215 -373 -353 -68 -64 -143 -134 -166
-156 -54 -51 -213 -199 -410 -380 -54 -49 -110 -101 -124 -115 -15 -14 -51
-47 -82 -75 -30 -27 -99 -90 -154 -140 -54 -49 -106 -97 -114 -105 -13 -12
-218 -194 -396 -351 -116 -103 -303 -263 -430 -369 -83 -69 -152 -127 -155
-131 -16 -19 -350 -270 -431 -324 -194 -129 -255 -148 -336 -106 -138 70 -461
395 -788 791 -43 52 -81 97 -85 100 -19 15 -440 550 -688 875 -100 132 -197
259 -215 282 -18 22 -40 52 -49 65 -9 12 -65 88 -124 168 -60 80 -211 287
-337 460 -126 173 -231 317 -233 319 -6 6 -1723 7 -1737 1z"/>
<path d="M11707 9534 c-1 -1 -153 -5 -337 -9 -184 -3 -420 -8 -525 -10 -291
-7 -664 -14 -930 -20 -321 -7 -663 -14 -925 -20 -118 -3 -327 -7 -465 -10
-137 -3 -349 -7 -470 -10 -227 -5 -565 -12 -975 -20 -129 -3 -327 -7 -440 -10
-113 -2 -324 -7 -470 -10 -146 -3 -366 -8 -490 -10 -571 -12 -730 -16 -930
-20 -118 -3 -327 -7 -465 -10 -137 -3 -349 -7 -470 -10 -208 -4 -446 -10 -935
-20 -641 -13 -770 -16 -935 -20 -99 -2 -234 -4 -299 -4 -66 -1 -117 -3 -115
-6 4 -4 53 -6 399 -20 290 -11 391 -15 500 -20 63 -3 176 -7 250 -10 74 -3
182 -8 240 -10 58 -2 170 -7 250 -10 80 -3 195 -8 255 -10 131 -6 297 -13 495
-20 80 -3 190 -8 245 -10 55 -2 161 -7 235 -10 74 -3 194 -7 265 -10 146 -7
256 -11 490 -20 189 -8 378 -15 740 -30 55 -2 165 -7 245 -10 148 -6 299 -12
495 -20 61 -2 180 -7 265 -10 85 -3 191 -7 235 -10 44 -3 154 -7 245 -10 91
-3 210 -8 265 -10 136 -6 312 -14 475 -20 74 -3 194 -8 265 -11 159 -6 274
-11 515 -19 102 -4 189 -11 193 -15 5 -4 -18 -7 -50 -7 -50 1 -423 -6 -958
-18 -88 -2 -293 -6 -455 -10 -162 -3 -389 -8 -505 -10 -281 -6 -657 -14 -950
-20 -132 -3 -346 -7 -475 -10 -129 -3 -347 -8 -485 -10 -137 -3 -349 -7 -470
-10 -121 -3 -330 -7 -465 -10 -135 -3 -342 -7 -460 -10 -199 -4 -527 -11 -960
-20 -303 -6 -789 -17 -940 -20 -80 -2 -199 -4 -264 -4 -66 -1 -117 -3 -114 -6
2 -3 69 -7 149 -10 79 -3 194 -7 254 -9 61 -3 173 -8 250 -10 77 -3 192 -8
255 -11 63 -3 176 -7 250 -10 159 -6 340 -13 500 -20 63 -2 185 -7 270 -10 85
-4 196 -8 245 -10 50 -2 160 -6 245 -9 85 -4 200 -9 255 -11 55 -3 163 -8 240
-10 77 -3 196 -7 265 -10 69 -3 182 -8 250 -10 193 -7 385 -15 495 -20 55 -3
168 -7 250 -10 83 -3 197 -8 255 -10 58 -2 175 -7 260 -10 85 -3 200 -8 255
-10 94 -5 159 -7 485 -20 74 -3 185 -7 245 -10 106 -4 258 -11 507 -20 65 -2
178 -7 250 -10 73 -3 192 -7 263 -10 72 -3 177 -7 235 -10 279 -12 421 -18
482 -19 71 -2 104 -12 40 -13 -80 0 -840 -15 -1382 -27 -287 -7 -570 -13
-1000 -21 -151 -3 -367 -8 -480 -10 -113 -2 -326 -7 -475 -10 -148 -3 -367 -8
-485 -10 -118 -3 -336 -7 -485 -10 -148 -3 -364 -8 -480 -10 -276 -6 -912 -19
-1435 -30 -135 -3 -346 -7 -470 -10 -124 -3 -344 -7 -489 -10 -146 -3 -267 -7
-269 -10 -3 -3 24 -5 59 -5 35 -1 105 -3 154 -5 50 -2 167 -7 260 -10 94 -4
213 -8 265 -11 52 -2 156 -6 230 -8 74 -3 191 -8 260 -11 242 -10 376 -15 515
-20 77 -2 190 -7 250 -10 112 -5 299 -12 505 -20 63 -2 176 -7 250 -10 74 -3
189 -7 255 -10 66 -2 179 -7 250 -10 72 -3 191 -7 265 -10 173 -7 355 -14 500
-20 63 -3 187 -7 275 -10 88 -3 201 -7 250 -10 50 -2 160 -7 245 -10 85 -3
205 -7 265 -10 61 -3 173 -7 250 -10 77 -3 187 -8 245 -10 58 -3 173 -7 255
-10 83 -3 193 -7 245 -9 140 -6 388 -16 525 -21 66 -3 170 -7 230 -10 61 -2
187 -7 280 -10 190 -6 318 -15 325 -21 2 -3 -29 -4 -70 -3 -41 1 -214 -1 -385
-5 -462 -10 -1110 -24 -1475 -31 -118 -3 -327 -7 -465 -10 -137 -3 -360 -7
-495 -10 -135 -2 -355 -7 -490 -10 -135 -3 -360 -7 -500 -10 -140 -3 -352 -7
-470 -10 -118 -2 -341 -7 -495 -10 -319 -6 -586 -12 -995 -20 -532 -11 -919
-19 -1392 -29 -70 -1 -131 -5 -134 -9 -4 -3 6 -6 22 -5 16 1 115 -2 219 -6
251 -10 316 -13 530 -21 99 -3 225 -8 280 -10 55 -3 161 -7 235 -10 74 -3 191
-8 260 -10 69 -3 184 -8 255 -10 72 -3 182 -7 245 -10 119 -4 311 -12 535 -20
72 -3 177 -7 235 -10 58 -2 175 -7 260 -10 85 -3 198 -7 250 -9 52 -3 169 -7
260 -11 91 -3 210 -8 265 -10 55 -2 165 -7 245 -10 80 -3 199 -7 265 -10 66
-2 188 -7 270 -10 83 -3 195 -8 250 -10 216 -9 425 -17 520 -20 112 -4 332
-13 505 -20 63 -3 178 -7 255 -10 77 -3 192 -7 255 -10 63 -2 180 -7 260 -10
80 -3 195 -8 255 -10 61 -3 175 -7 255 -10 80 -2 197 -7 260 -10 179 -7 382
-15 525 -21 72 -2 180 -6 240 -9 61 -2 180 -7 265 -10 85 -3 198 -8 250 -10
52 -2 169 -7 260 -10 91 -4 210 -8 265 -10 55 -3 173 -7 262 -10 l162 -6 10
38 c6 21 44 151 84 288 41 138 71 254 67 258 -4 4 4 45 17 90 14 45 41 136 60
202 20 66 37 141 39 166 2 25 10 66 18 90 12 37 29 96 42 144 1 6 18 63 37
127 19 65 30 119 25 120 -5 2 -2 23 7 47 8 24 17 53 20 65 2 12 26 97 54 191
28 93 48 172 45 175 -5 5 -72 8 -77 4z m-2570 -530 c-3 -3 -12 -4 -19 -1 -8 3
-5 6 6 6 11 1 17 -2 13 -5z"/>
<path d="M16429 9414 c-100 -23 -246 -103 -333 -183 l-28 -26 5 30 c21 110 29
176 24 181 -3 3 -79 -17 -169 -46 -293 -93 -293 -93 -296 -116 -3 -20 1 -21
57 -21 72 0 107 -19 113 -63 3 -17 -4 -79 -14 -138 -10 -59 -20 -120 -22 -137
-3 -16 -23 -131 -45 -255 -22 -124 -43 -241 -46 -260 -3 -19 -19 -109 -35
-200 -16 -91 -31 -178 -33 -195 -55 -339 -78 -421 -133 -464 -29 -23 -89 -42
-135 -43 -16 -1 -29 -6 -30 -12 0 -6 -2 -18 -4 -26 -2 -13 41 -15 353 -15
l355 0 8 22 c10 27 7 29 -56 37 -149 20 -172 43 -162 155 4 37 8 75 10 86 3
11 8 40 12 65 4 25 9 54 11 65 2 11 7 34 9 50 3 17 12 66 20 110 19 102 23
128 24 138 1 5 22 -10 49 -31 70 -60 113 -74 222 -78 182 -6 321 54 467 202
201 205 306 455 305 724 -2 241 -119 409 -313 449 -65 14 -113 12 -190 -5z
m60 -198 c165 -83 214 -275 144 -571 -51 -219 -171 -393 -321 -467 -59 -29
-76 -33 -147 -33 -62 1 -89 6 -121 22 -77 41 -131 126 -119 189 3 16 8 45 11
64 3 19 12 71 19 115 8 44 17 94 20 110 2 17 20 120 40 230 40 223 48 241 128
296 118 81 242 98 346 45z"/>
<path d="M17905 9419 c-89 -16 -150 -55 -271 -171 -45 -43 -84 -78 -88 -78 -4
0 -4 10 0 23 16 49 40 219 32 224 -5 2 -64 -15 -131 -40 -67 -25 -169 -60
-227 -79 -109 -34 -120 -41 -120 -72 0 -15 5 -17 28 -11 39 11 94 6 119 -10
15 -10 24 -30 29 -62 5 -27 8 -50 7 -53 0 -3 -4 -33 -7 -67 -4 -35 -8 -68 -11
-75 -2 -7 -6 -29 -9 -48 -3 -19 -10 -57 -15 -85 -6 -27 -12 -63 -15 -80 -2
-16 -11 -73 -21 -125 -9 -52 -18 -108 -21 -125 -2 -16 -14 -77 -25 -134 -35
-180 -61 -209 -211 -228 -36 -4 -48 -10 -52 -26 -3 -12 -4 -23 -2 -25 3 -3
623 -5 699 -3 11 1 17 9 17 24 0 20 -5 23 -37 24 -93 2 -171 50 -174 106 -1
12 -2 29 -3 37 0 8 3 38 7 65 4 28 10 66 12 85 3 19 7 42 10 50 2 8 7 33 10
55 3 22 14 87 24 145 11 58 22 121 25 140 3 19 8 45 10 56 2 12 7 39 10 60 15
97 36 143 93 204 68 74 133 115 168 106 13 -3 43 -24 67 -46 48 -46 72 -55
130 -47 63 8 111 64 124 143 7 43 -16 103 -46 122 -31 19 -92 29 -135 21z"/>
<path d="M19880 9420 c-143 -26 -280 -123 -339 -238 -50 -97 -58 -225 -21
-309 23 -53 114 -146 190 -195 283 -181 303 -198 324 -269 16 -55 11 -100 -19
-158 -26 -52 -53 -79 -110 -112 -34 -20 -54 -23 -135 -23 -80 0 -102 3 -138
22 -110 58 -161 165 -171 358 -1 27 -26 38 -44 19 -8 -7 -18 -40 -22 -72 -3
-32 -8 -65 -10 -73 -8 -38 -55 -307 -55 -315 0 -7 44 5 49 13 17 25 46 29 105
15 34 -8 68 -16 76 -18 8 -2 34 -8 58 -13 63 -15 202 -12 275 4 280 64 456
338 352 550 -46 94 -122 158 -335 282 -166 97 -218 160 -207 253 16 131 119
215 264 213 62 -1 79 -5 120 -30 78 -48 127 -150 135 -277 1 -24 9 -42 19 -48
19 -9 36 5 37 31 0 8 2 29 5 45 3 17 11 64 17 105 6 41 14 86 16 100 2 14 7
46 10 73 6 54 -3 59 -54 30 -28 -16 -33 -16 -118 10 -96 30 -202 40 -274 27z"/>
<path d="M20975 9405 c-162 -50 -280 -167 -315 -315 -45 -189 16 -292 270
-454 197 -125 221 -145 250 -209 35 -76 3 -187 -72 -252 -58 -49 -124 -69
-213 -62 -180 13 -269 132 -284 383 -1 14 -9 23 -25 26 -22 4 -24 1 -41 -96
-9 -56 -19 -112 -21 -126 -2 -14 -7 -36 -10 -50 -3 -14 -8 -43 -10 -65 -3 -22
-7 -48 -10 -58 -3 -10 -7 -31 -9 -47 -3 -24 -1 -28 15 -25 10 2 32 13 47 24
l28 20 115 -28 c122 -31 260 -39 337 -20 21 5 46 11 56 14 39 9 131 56 170 87
87 69 137 143 162 239 37 142 -17 269 -160 376 -42 31 -192 123 -201 123 -18
0 -144 98 -166 130 -71 98 -28 236 97 310 33 19 54 24 120 23 94 0 145 -21
194 -80 35 -42 69 -143 74 -217 2 -40 7 -51 24 -57 24 -9 28 -3 38 66 3 22 12
85 21 140 28 185 28 195 6 195 -11 0 -25 -7 -32 -15 -17 -21 -43 -19 -135 11
-109 36 -224 39 -320 9z"/>
<path d="M13385 9403 c-66 -13 -218 -78 -247 -105 -7 -7 -39 -35 -70 -61 -31
-26 -84 -84 -117 -127 -130 -173 -192 -365 -186 -579 4 -150 54 -286 135 -375
155 -168 489 -165 719 6 87 63 204 187 260 273 28 43 51 81 51 85 0 4 -11 12
-25 18 -14 6 -25 8 -25 3 0 -4 -37 -46 -82 -92 -146 -149 -248 -200 -403 -202
-119 -1 -188 25 -261 98 -62 61 -89 111 -110 201 -14 61 -20 230 -10 279 3 11
5 27 5 36 1 14 46 16 456 16 250 0 458 2 461 6 12 12 16 155 5 211 -28 149
-137 264 -291 306 -66 18 -185 19 -265 3z m132 -110 c57 -20 101 -67 119 -129
15 -51 21 -164 10 -182 -3 -5 -127 -10 -301 -10 -243 0 -295 2 -295 13 0 8 17
48 39 89 41 80 104 154 160 189 74 45 184 58 268 30z"/>
<path d="M18690 9413 c-244 -40 -453 -205 -576 -458 -127 -262 -122 -582 13
-762 38 -51 41 -54 94 -91 150 -102 428 -88 611 30 93 60 199 159 262 243 53
69 100 145 94 150 -2 1 -13 7 -24 13 -19 10 -24 8 -37 -11 -22 -33 -116 -127
-167 -168 -102 -82 -213 -119 -339 -114 -177 8 -315 139 -348 333 -6 39 -6
209 1 252 2 14 4 30 5 36 1 8 127 11 456 11 250 0 458 3 461 6 4 3 8 46 9 94
3 140 -28 233 -105 311 -47 47 -105 84 -169 107 -42 15 -192 26 -241 18z m93
-122 c85 -33 132 -129 125 -258 l-3 -58 -302 -1 -302 -2 20 50 c71 182 207
290 359 286 36 -1 82 -8 103 -17z"/>
<path d="M14217 9370 c-5 -21 -3 -22 74 -35 20 -3 48 -17 62 -31 29 -28 109
-188 250 -494 11 -25 22 -48 24 -52 2 -4 -31 -49 -74 -100 -43 -51 -87 -104
-98 -117 -11 -14 -49 -59 -85 -100 -36 -42 -90 -106 -120 -141 -107 -127 -140
-151 -267 -195 -28 -9 -13 -35 20 -36 44 -1 358 -1 378 0 9 1 19 10 22 21 4
16 -2 20 -40 26 -24 3 -51 13 -59 21 -13 13 -12 19 7 53 12 21 31 49 43 61 12
13 37 44 56 69 19 25 37 47 40 50 3 3 54 65 113 138 60 72 111 132 115 132 18
-1 202 -416 202 -456 0 -30 -41 -64 -84 -69 -46 -6 -56 -12 -56 -31 0 -17 -37
-15 304 -16 287 -1 290 -1 297 21 7 16 4 21 -9 22 -60 2 -112 36 -150 97 -17
26 -57 103 -90 172 -33 69 -92 193 -132 275 -104 216 -103 213 -88 229 7 7 32
35 55 62 23 27 50 58 60 70 10 12 45 52 78 90 33 37 79 89 103 115 58 64 162
117 250 127 6 1 12 11 12 22 0 19 -7 20 -235 20 -228 0 -235 -1 -235 -20 0
-13 9 -21 28 -26 113 -24 102 -58 -91 -281 -44 -51 -82 -93 -84 -93 -6 0 -77
150 -101 213 -27 71 -28 109 -4 129 19 18 56 30 90 32 21 2 41 20 42 39 0 4
-139 7 -309 7 -300 0 -309 -1 -314 -20z"/>
<path d="M6328 6665 c-2 -1 -28 -5 -58 -8 -93 -10 -210 -46 -308 -92 -344
-165 -586 -512 -618 -887 -3 -44 -7 -85 -8 -91 -3 -36 18 -176 34 -228 71
-223 242 -391 465 -458 130 -40 326 -45 480 -15 141 29 249 73 370 153 92 60
107 72 193 160 200 203 303 471 297 771 -2 140 -17 204 -72 314 -95 192 -260
313 -498 367 -43 9 -269 21 -277 14z m210 -116 c83 -40 136 -110 174 -230 19
-63 23 -96 23 -219 0 -133 -7 -236 -20 -300 -3 -14 -8 -40 -11 -59 -13 -77
-41 -189 -70 -284 -29 -91 -86 -213 -133 -281 -93 -135 -221 -214 -358 -221
-242 -13 -364 144 -367 470 0 56 11 207 19 245 5 25 16 94 20 120 1 8 7 42 14
75 85 404 249 647 476 701 73 17 177 10 233 -17z"/>
<path d="M2072 6597 l-8 -32 53 -12 c107 -25 131 -52 127 -143 -2 -39 -58
-380 -69 -420 -2 -8 -7 -35 -10 -60 -3 -25 -8 -52 -10 -60 -5 -18 -16 -87 -19
-115 -1 -11 -5 -33 -9 -50 -4 -16 -9 -42 -11 -58 -3 -15 -10 -53 -15 -85 -13
-72 -18 -104 -28 -161 -4 -25 -7 -48 -8 -51 -1 -3 -4 -18 -8 -35 -3 -16 -9
-47 -12 -68 -20 -140 -54 -206 -123 -235 -27 -12 -65 -22 -86 -24 -41 -2 -51
-11 -54 -48 l-3 -25 422 0 423 0 7 27 c8 32 -3 43 -46 46 -50 5 -91 21 -115
46 -35 38 -32 88 20 380 39 219 44 250 42 259 -1 4 15 7 36 8 322 4 448 22
586 83 150 66 257 181 310 331 27 78 30 237 5 302 -46 121 -166 190 -374 218
-70 9 -237 13 -557 13 l-458 0 -8 -31z m892 -91 c61 -36 86 -96 86 -209 0
-243 -90 -435 -227 -487 -76 -28 -270 -47 -266 -25 5 37 33 200 37 220 5 27
14 82 21 125 3 19 12 71 21 115 8 45 16 94 19 110 23 164 46 185 193 179 56
-2 83 -8 116 -28z"/>
<path d="M3626 6614 c-16 -42 -7 -52 48 -59 65 -8 113 -35 127 -73 10 -25 7
-117 -6 -187 -6 -32 -10 -51 -19 -105 -3 -19 -17 -99 -31 -176 -14 -78 -27
-154 -30 -170 -2 -16 -18 -108 -35 -204 -17 -96 -33 -186 -35 -200 -3 -14 -7
-36 -9 -50 -3 -14 -8 -41 -10 -60 -3 -19 -8 -46 -11 -60 -2 -13 -7 -42 -11
-64 -10 -67 -44 -144 -75 -170 -30 -26 -74 -41 -142 -49 -46 -6 -47 -7 -50
-43 l-2 -28 428 -1 428 0 5 22 c8 31 1 46 -22 49 -166 23 -183 54 -145 274 5
30 12 71 15 90 4 19 13 71 21 115 19 109 23 131 31 182 3 23 9 43 13 43 3 0
37 -55 75 -123 39 -67 77 -133 86 -147 9 -14 33 -54 52 -90 20 -36 74 -130
120 -210 47 -80 92 -159 101 -175 l15 -30 268 0 268 0 3 32 c3 28 1 32 -26 38
-16 3 -36 14 -44 23 -12 14 -187 312 -302 517 -13 22 -46 80 -74 128 -28 49
-51 90 -51 92 0 2 15 6 33 10 104 22 258 107 333 184 114 115 163 325 107 452
-46 102 -184 191 -336 215 -23 3 -53 9 -67 11 -14 3 -253 7 -532 9 -447 3
-507 1 -512 -12z m919 -97 c49 -27 62 -41 89 -91 24 -45 26 -56 22 -155 -5
-146 -47 -289 -104 -356 -58 -69 -171 -107 -359 -122 l-72 -5 5 28 c2 16 9 56
15 89 6 33 13 70 15 83 2 12 6 34 9 50 3 15 9 54 15 87 5 33 12 71 15 85 2 13
7 40 10 60 3 20 8 47 10 60 3 14 8 43 11 65 9 62 35 108 74 127 45 23 200 20
245 -5z"/>
<path d="M8070 6617 c0 -7 -3 -22 -6 -33 -5 -20 -1 -23 48 -29 96 -13 141 -58
134 -135 -2 -19 -11 -78 -20 -130 -10 -52 -19 -108 -22 -125 -3 -16 -7 -37 -9
-45 -2 -8 -7 -31 -9 -50 -3 -19 -9 -60 -15 -90 -6 -30 -13 -71 -16 -90 -8 -50
-25 -150 -31 -180 -3 -14 -7 -36 -9 -50 -2 -14 -11 -65 -20 -115 -9 -49 -27
-155 -41 -235 -35 -203 -42 -225 -79 -263 -32 -33 -67 -46 -159 -61 -35 -6
-33 -4 -38 -41 l-3 -30 435 1 c239 0 462 3 495 6 148 14 326 69 430 132 343
207 524 520 526 908 1 222 -92 414 -256 528 -79 55 -203 100 -340 125 -22 4
-255 9 -517 10 -360 3 -478 0 -478 -8z m884 -94 c206 -61 297 -282 261 -633
-12 -109 -10 -100 -19 -140 -56 -271 -122 -443 -209 -545 -67 -78 -203 -166
-279 -180 -13 -3 -43 -8 -68 -13 -90 -16 -173 -4 -191 29 -11 22 -14 95 -4
139 3 14 16 90 30 170 14 80 27 156 30 170 7 36 35 200 41 240 3 19 7 42 9 50
3 8 7 33 10 55 3 22 8 51 11 65 10 56 13 69 18 101 11 66 43 250 50 285 2 12
7 37 10 55 3 19 8 44 10 56 9 43 38 84 69 97 42 18 159 17 221 -1z"/>
<path d="M9915 6616 c-15 -45 -12 -49 60 -62 57 -11 75 -19 99 -45 27 -31 28
-35 23 -103 -4 -39 -9 -83 -12 -98 -7 -37 -10 -54 -45 -258 -17 -96 -33 -186
-36 -200 -2 -14 -7 -40 -10 -59 -3 -18 -8 -43 -10 -55 -2 -11 -11 -61 -19
-111 -8 -49 -17 -99 -19 -110 -2 -11 -7 -40 -11 -65 -9 -52 -13 -75 -20 -110
-3 -14 -12 -67 -21 -119 -27 -168 -77 -224 -209 -232 -46 -4 -65 -17 -65 -47
l0 -27 740 0 c730 0 739 0 749 20 12 23 178 473 183 494 2 10 -7 15 -30 17
-30 2 -37 -4 -75 -58 -66 -95 -68 -98 -127 -157 -105 -108 -183 -158 -310
-195 -87 -27 -126 -31 -267 -31 -118 0 -134 2 -160 21 -34 25 -39 60 -23 153
20 124 81 466 91 519 l11 53 61 -6 c200 -21 264 -89 275 -290 l5 -102 26 3
c14 1 29 2 33 3 3 1 9 20 13 44 8 49 13 72 20 107 2 14 7 41 10 60 3 19 10 61
15 92 6 32 12 68 14 80 2 13 11 61 20 108 8 47 18 101 21 120 11 64 14 84 28
158 13 66 12 74 -2 81 -19 10 -61 -3 -61 -19 0 -20 -73 -164 -106 -211 -69
-95 -133 -126 -286 -136 l-77 -5 9 33 c5 19 11 52 15 74 3 22 14 91 25 153 11
61 29 165 40 230 36 204 38 206 225 208 280 3 412 -51 464 -190 20 -54 38
-146 40 -212 1 -16 8 -20 31 -20 32 0 33 2 45 71 3 17 18 107 35 200 16 94 32
186 35 206 l6 37 -731 0 c-538 0 -732 -3 -735 -12z"/>
<path d="M11615 6616 c-16 -53 -15 -53 45 -60 76 -9 122 -39 134 -89 9 -33 -3
-139 -29 -267 -3 -14 -12 -65 -21 -115 -8 -49 -17 -101 -20 -115 -2 -14 -7
-41 -10 -60 -2 -19 -11 -69 -19 -110 -7 -41 -19 -106 -26 -145 -17 -100 -18
-107 -24 -135 -2 -14 -7 -38 -10 -55 -3 -16 -12 -70 -21 -120 -9 -49 -17 -101
-19 -115 -24 -174 -69 -225 -216 -243 -49 -6 -59 -13 -59 -45 l0 -27 735 0
735 0 14 40 c8 22 24 67 36 100 12 33 48 135 81 228 32 92 63 176 69 187 10
19 8 20 -34 20 -31 0 -46 -5 -50 -16 -3 -9 -32 -55 -63 -102 -178 -267 -374
-373 -678 -369 -194 3 -201 16 -156 257 13 71 19 102 31 175 5 33 12 71 15 85
2 13 7 42 10 65 3 22 8 47 10 55 2 8 7 31 10 50 3 19 10 58 15 85 5 28 11 64
14 80 7 49 66 383 83 470 18 94 27 119 56 162 29 43 107 69 217 72 17 1 26 7
27 19 1 9 3 24 5 32 3 13 -53 15 -440 16 -326 2 -444 -1 -447 -10z"/>
<path d="M13304 6614 c-2 -8 -6 -21 -9 -29 -6 -19 0 -21 62 -29 64 -7 82 -14
110 -39 31 -27 37 -73 23 -154 -6 -38 -13 -79 -15 -93 -2 -14 -10 -63 -19
-110 -19 -103 -23 -128 -36 -205 -12 -71 -19 -111 -25 -145 -3 -14 -7 -41 -10
-60 -3 -19 -13 -73 -21 -120 -9 -47 -18 -94 -20 -105 -1 -11 -15 -87 -29 -170
-14 -82 -28 -165 -31 -183 -15 -113 -83 -173 -211 -186 -53 -5 -63 -12 -63
-44 l0 -27 442 0 441 0 10 28 c11 35 7 39 -42 43 -69 5 -119 23 -142 52 -19
24 -21 35 -16 97 4 39 8 79 10 90 3 11 8 40 12 65 4 25 9 54 11 65 2 11 7 34
9 50 3 17 17 93 30 170 33 191 53 303 60 345 3 19 8 46 10 60 8 36 12 59 20
110 9 56 12 72 25 135 5 28 12 66 14 85 9 68 26 129 47 164 30 52 110 84 210
86 23 0 27 5 31 34 l4 34 -444 0 c-370 0 -444 -3 -448 -14z"/>
<path d="M14296 6622 c-3 -3 -6 -18 -6 -33 0 -23 5 -28 36 -34 21 -3 47 -13
60 -22 31 -20 68 -100 89 -193 9 -41 21 -86 25 -100 5 -14 25 -90 45 -170 20
-80 55 -215 77 -300 22 -85 41 -162 43 -170 4 -16 75 -294 126 -490 17 -63 32
-122 34 -130 26 -111 25 -110 64 -110 35 0 37 2 95 108 33 59 83 148 111 197
29 50 63 110 77 135 28 51 172 306 291 515 44 77 91 160 105 185 193 347 243
429 286 475 37 40 80 62 135 71 23 4 41 12 42 18 0 6 2 21 5 32 l4 22 -273 -2
-272 -1 -3 -32 c-3 -31 -1 -33 30 -34 18 0 42 -2 53 -4 11 -2 34 -6 51 -10 18
-3 37 -12 43 -19 25 -29 14 -101 -24 -170 -81 -146 -140 -252 -275 -491 -84
-148 -168 -298 -187 -333 -20 -35 -37 -62 -38 -60 -3 3 -71 258 -80 298 -2 9
-39 157 -83 330 -92 362 -95 402 -32 435 15 8 60 17 101 20 82 8 85 9 94 47
l7 26 -426 0 c-233 0 -427 -3 -430 -6z"/>
<path d="M16130 6616 c0 -6 -3 -21 -6 -33 -6 -20 -3 -23 23 -23 44 0 127 -27
145 -47 33 -36 28 -126 -17 -355 -3 -13 -10 -50 -15 -83 -12 -74 -19 -112 -25
-145 -3 -14 -7 -43 -11 -65 -3 -22 -7 -47 -9 -55 -2 -8 -7 -31 -10 -50 -3 -19
-12 -71 -20 -115 -8 -44 -17 -96 -20 -115 -3 -19 -7 -46 -10 -60 -3 -14 -7
-38 -10 -55 -3 -16 -7 -41 -10 -55 -3 -14 -10 -52 -15 -85 -27 -166 -35 -190
-75 -230 -36 -35 -78 -51 -154 -59 -50 -5 -49 -3 -53 -41 l-3 -30 743 0 742 0
19 50 c10 27 53 142 95 255 42 113 76 210 76 216 0 5 -15 10 -34 10 -29 0 -37
-7 -70 -56 -126 -189 -277 -308 -456 -360 -100 -29 -348 -38 -396 -14 -34 16
-55 52 -50 81 2 10 6 39 10 64 4 25 9 58 11 72 8 45 25 141 29 163 2 12 7 37
10 55 3 19 10 57 15 86 6 29 13 71 16 95 4 24 10 59 14 78 l7 35 60 -2 c124
-5 210 -49 243 -123 29 -65 33 -84 36 -172 2 -44 6 -83 10 -86 3 -3 16 -8 30
-9 25 -4 30 4 40 67 3 19 12 71 20 115 8 44 17 96 20 115 3 19 8 49 12 65 3
17 7 40 9 52 1 12 5 34 8 50 4 15 8 42 11 58 2 17 16 95 30 175 14 80 25 150
25 155 0 7 -15 9 -35 7 -19 -2 -35 -9 -35 -16 0 -6 -22 -56 -50 -112 -86 -174
-166 -231 -339 -241 -78 -5 -83 -5 -78 13 3 11 8 35 11 54 3 19 8 46 11 60 3
13 7 40 10 60 3 20 8 47 10 60 6 31 14 76 21 115 2 17 9 55 15 85 5 30 12 73
16 94 9 66 28 109 57 131 25 18 42 20 174 20 337 -1 453 -78 478 -318 4 -34 8
-69 10 -77 1 -8 3 -18 3 -21 2 -11 61 -5 62 6 1 12 4 31 24 140 8 44 17 96 20
115 3 19 12 71 20 115 8 44 16 92 19 106 l4 27 -734 0 c-544 0 -734 -3 -734
-12z"/>
<path d="M17826 6614 c-15 -40 -7 -52 42 -59 140 -21 160 -70 119 -295 -9 -47
-19 -98 -21 -115 -3 -16 -15 -79 -25 -140 -11 -60 -23 -125 -26 -142 -10 -63
-14 -89 -40 -238 -15 -82 -28 -161 -30 -175 -3 -14 -7 -34 -9 -45 -2 -11 -14
-76 -26 -145 -24 -132 -54 -207 -92 -232 -31 -20 -86 -37 -128 -41 -47 -4 -55
-10 -58 -44 l-2 -28 430 0 c280 0 430 3 431 10 1 5 3 21 4 35 3 23 0 25 -42
27 -57 3 -114 30 -131 63 -17 32 -10 139 17 290 12 63 24 133 27 155 3 22 14
78 23 124 l16 83 108 -188 c60 -104 113 -196 118 -204 27 -45 96 -167 102
-180 4 -8 18 -33 32 -55 23 -36 52 -88 80 -140 10 -19 21 -20 275 -20 228 0
266 2 272 15 15 33 8 47 -30 58 -35 11 -44 22 -109 134 -38 68 -132 230 -207
361 -75 131 -139 244 -142 251 -3 9 11 17 43 25 26 7 90 32 141 57 165 80 262
196 295 355 29 136 2 233 -84 314 -69 63 -153 101 -274 121 -16 3 -41 8 -55
11 -14 3 -253 7 -532 9 -447 3 -507 1 -512 -12z m870 -84 c101 -23 156 -96
159 -215 5 -141 -39 -311 -101 -392 -59 -78 -163 -115 -362 -128 l-73 -6 6 38
c4 21 15 85 25 143 11 58 22 121 25 140 3 19 10 58 15 85 5 28 12 64 14 80 26
164 36 199 63 227 14 15 35 29 47 30 52 9 138 8 182 -2z"/>
<path d="M19566 6606 c-10 -36 -7 -46 14 -46 34 0 97 -37 123 -72 13 -18 99
-230 189 -470 l165 -437 -18 -93 c-10 -51 -20 -111 -23 -133 -4 -22 -8 -51
-11 -65 -3 -14 -8 -41 -11 -60 -18 -114 -56 -189 -108 -214 -35 -17 -104 -32
-141 -31 -25 0 -35 -13 -35 -45 l0 -25 436 0 c467 0 452 -1 450 49 -1 16 -10
20 -50 23 -106 8 -149 47 -147 135 0 29 3 64 6 78 2 13 7 40 10 60 3 20 8 47
10 60 8 39 34 191 41 235 16 110 24 125 117 243 51 64 144 182 207 262 63 80
119 150 125 156 5 7 44 56 85 109 121 158 169 202 239 221 58 16 70 29 71 71
0 16 -560 16 -561 -1 0 -6 -2 -21 -5 -33 -3 -19 2 -22 67 -28 126 -13 153 -68
87 -183 -59 -103 -446 -598 -458 -585 -7 8 -200 518 -231 608 -22 65 -17 115
12 135 25 16 30 17 119 26 79 8 80 8 80 43 l0 28 -424 1 -424 0 -6 -22z"/>
</g>
</svg>
